<?xml version="1.0" encoding="iso-8859-1"?>
<!-- Generator: Adobe Illustrator 16.0.0, SVG Export Plug-In . SVG Version: 6.00 Build 0)  -->
<!DOCTYPE svg PUBLIC "-//W3C//DTD SVG 1.1//EN" "http://www.w3.org/Graphics/SVG/1.1/DTD/svg11.dtd">
<svg version="1.1" id="Capa_1" xmlns="http://www.w3.org/2000/svg" xmlns:xlink="http://www.w3.org/1999/xlink" x="0px" y="0px"
	 width="47.266px" height="47.266px" viewBox="0 0 47.266 47.266" style="enable-background:new 0 0 47.266 47.266;"
	 xml:space="preserve">
<g>
	<path d="M42.156,8.674H29.223v2.636H18.045V8.674H5.109C2.289,8.674,0,10.965,0,13.784v8.463c0,2.823,0.959,7.146,2.144,9.653
		l2.143,4.545c1.203,2.552,3.657,2.873,5.477,0.718l4.984-5.9c1.821-2.155,3.297-4.495,3.297-5.223v-1.317h11.18
		c0,0,0,0.592,0,1.317c0,0.728,1.475,3.065,3.295,5.223l4.982,5.9c1.822,2.155,4.274,1.834,5.479-0.718c0,0,0.957-2.035,2.145-4.545
		c1.184-2.509,2.141-6.83,2.141-9.653v-8.463C47.266,10.965,44.979,8.674,42.156,8.674z M9.21,22.861
		c-2.823,0-5.111-2.288-5.111-5.11c0-2.821,2.288-5.109,5.111-5.109c2.82,0,5.108,2.288,5.108,5.109
		C14.318,20.573,12.03,22.861,9.21,22.861z M36.107,20.661c-0.516,0.854-1.627,1.13-2.485,0.614
		c-0.854-0.519-1.13-1.631-0.614-2.486c0.519-0.854,1.629-1.13,2.485-0.613C36.348,18.692,36.625,19.804,36.107,20.661z
		 M36.578,16.378c-0.855-0.518-1.13-1.63-0.613-2.487c0.518-0.856,1.631-1.13,2.484-0.614c0.857,0.518,1.133,1.63,0.613,2.486
		C38.549,16.618,37.436,16.895,36.578,16.378z M41.165,23.715c-0.517,0.855-1.63,1.129-2.485,0.613
		c-0.854-0.518-1.131-1.63-0.611-2.484c0.516-0.856,1.627-1.13,2.484-0.614C41.406,21.745,41.68,22.86,41.165,23.715z
		 M44.123,18.817c-0.518,0.856-1.632,1.13-2.486,0.612c-0.854-0.517-1.131-1.629-0.615-2.483c0.52-0.858,1.631-1.132,2.488-0.614
		C44.362,16.848,44.639,17.96,44.123,18.817z"/>
</g>
<g>
</g>
<g>
</g>
<g>
</g>
<g>
</g>
<g>
</g>
<g>
</g>
<g>
</g>
<g>
</g>
<g>
</g>
<g>
</g>
<g>
</g>
<g>
</g>
<g>
</g>
<g>
</g>
<g>
</g>
</svg>
